<?xml version="1.0" encoding="utf-8"?>
<!-- Svg Vector Icons : http://www.onlinewebfonts.com/icon -->
<!DOCTYPE svg PUBLIC "-//W3C//DTD SVG 1.1//EN" "http://www.w3.org/Graphics/SVG/1.1/DTD/svg11.dtd">
<svg version="1.1" xmlns="http://www.w3.org/2000/svg" xmlns:xlink="http://www.w3.org/1999/xlink" x="0px" y="0px" viewBox="0 0 1000 1000" enable-background="new 0 0 1000 1000" xml:space="preserve">
<metadata> Svg Vector Icons : http://www.onlinewebfonts.com/icon </metadata>
<g><g><g id="iconos_62_"><path d="M71.1,734.4h557.4l-91.1-351.6H298.1l-28.5,115.6c0,0-147.7,1.6-203,1.6C11.2,500,10,550.8,10,550.8s0,79.4,0,128.2C10,739.3,71.1,734.4,71.1,734.4z M340.4,441.4h153L526,558.6H322.5L340.4,441.4z"/><path d="M576.4,402.3c0,0,48.8-120.5,213.2-140c70.2-9,82.3-52.2,59.4-78.1C819,150,745.7,163.7,693.2,166.3c-117.1,5.9-247,118.8-292.6,177.4h156.3L576.4,402.3z"/><path d="M895.4,220c0,87.9-97.7,84.6-97.7,84.6L818.3,580l69.9-60.5l43.1-387.4c0,0-9.8-81.4-76.5-81.4c-76.5,0-76.5,68.4-76.5,68.4S895.4,112.6,895.4,220z"/><path d="M931.3,539.1L705.7,740c36.8,40.8,111.3,101.8,111.3,101.8S983.4,819,989.9,672.5C993.3,594.5,931.3,539.1,931.3,539.1z"/><path d="M654.6,880.9v-39.1c0-37.7-30.7-68.4-68.4-68.4H97.9c-37.7,0-68.4,30.7-68.4,68.4v39.1c0,37.7,30.7,68.4,68.4,68.4h488.3C623.9,949.2,654.6,918.6,654.6,880.9z M596,880.9c0,5.4-4.4,9.8-9.8,9.8H97.9c-5.4,0-9.8-4.4-9.8-9.8v-39.1c0-5.4,4.4-9.8,9.8-9.8h488.3c5.4,0,9.8,4.4,9.8,9.8L596,880.9L596,880.9z"/><polygon points="693.6,600.1 668,618.4 690.4,705.1 757.1,644.9 "/></g></g><g></g><g></g><g></g><g></g><g></g><g></g><g></g><g></g><g></g><g></g><g></g><g></g><g></g><g></g><g></g></g>
</svg>